<svg xmlns="http://www.w3.org/2000/svg" viewBox="0 0 85.45 151.89"><defs><style>.cls-1{fill:#fff;}</style></defs><title>rc-hand-white</title><g id="Layer_2" data-name="Layer 2"><g id="Art"><path class="cls-1" d="M43.63,49.34a.74.74,0,0,1-.74-.65c0-.34-4.14-33.81,17.83-41.91C61.1,6.65,66,5,68.14,4c.55-.25.52.26-.7,1.09A26.78,26.78,0,0,1,61.23,8.2c-20.85,7.67-16.91,40-16.87,40.29a.76.76,0,0,1-.64.85Z"/><path class="cls-1" d="M45.61,24.94l-.11-1.5C61.83,22.21,70.08,10.12,71.8,2.05a29.37,29.37,0,0,1-7.73.1c-3.9-.28-7.94-.58-11.52,1.45C43,9,47.14,22.25,47.18,22.39l-1.41.46c-.05-.14-4.52-14.58,6-20.57C55.79,0,60.06.35,64.18.65c3,.22,5.79.43,8.35-.32L73.64,0l-.17,1.16C72.23,9.64,63.58,23.59,45.61,24.94Z"/><path class="cls-1" d="M43.28,41.07a.74.74,0,0,1-.74-.7C42,32.09,37.23,23.31,29.25,16.42c-2.83-2.44-5.75-6.1-6.41-8-.23-.63.22-.72.71-.13a33.58,33.58,0,0,0,5.28,5.79c9.09,7.36,14.56,17,15.18,26.15a.74.74,0,0,1-.68.8Z"/><path class="cls-1" d="M38.55,32.3A17.25,17.25,0,0,1,23.5,24,21.34,21.34,0,0,1,20.71,15c-.45-3.11-.91-6.33-3.44-10l-.74-1.07,1.28-.11c8-.72,15.73,2.44,20.08,8.2,3.64,4.83,4.42,10.87,2.2,17,0,0-1.1-1.37-1-1.8A15.79,15.79,0,0,0,36.71,13C32.9,7.88,26.29,5,19.19,5.25a23.14,23.14,0,0,1,3,9.55c.4,2.82.78,5.47,2.58,8.37a16,16,0,0,0,15.76,7.49l.27,1.48A13.07,13.07,0,0,1,38.55,32.3Z"/><path class="cls-1" d="M60,68.84l-.6,1.38A42.15,42.15,0,0,1,82,121.41H71.06L72,126l6.11,4.05c-.25.43-.52.85-.79,1.27l-5.93-3.92-6.73,6-1.33,5.84,4,2.66-.31.47c-.26.2-.54.39-.81.59l-3.76-2.51L57.29,143l-1.91,5.33c-.58.19-1.17.36-1.76.53l2.07-5.78L45.3,141.64l-1,3.62,2.58,4.91c-.53.06-1.07.09-1.61.13l-2-3.83-4.86,3.67c-.71-.07-1.41-.17-2.11-.28l6.58-5,3.83-13.35L41.05,129l-3.14,5.48-6.54,5.41,1.18,9.2c-.53-.14-1-.29-1.55-.44l-1.08-8.38-9.69-.84,1.25,5c-.62-.38-1.23-.78-1.83-1.19l-2.49-9.86-6-7.3L8,131c-.29-.47-.58-.94-.85-1.42l5.27-8.16H3.49A42.24,42.24,0,0,1,19.66,73.82l-.83-1.24A43.51,43.51,0,0,0,0,108.53c0,23.91,19.17,43.36,42.72,43.36s42.73-19.45,42.73-43.36A43.43,43.43,0,0,0,60,68.84Z"/><polygon class="cls-1" points="47.63 130.33 57.2 128.16 59.13 121.41 45.4 121.41 41.8 127.69 47.63 130.33"/><polygon class="cls-1" points="30.2 127.37 33.7 121.41 24.55 121.41 26.91 126.77 30.2 127.37"/><polygon class="cls-1" points="26.55 128.23 18.68 133.33 19.84 137.89 30.34 138.79 35.71 134.36 30.22 128.9 26.55 128.23"/><polygon class="cls-1" points="70.47 126.21 69.55 121.41 60.67 121.41 58.65 128.48 63.88 132.04 70.47 126.21"/><polygon class="cls-1" points="36.87 133.41 43.69 121.41 35.42 121.41 31.51 128.07 36.87 133.41"/><polygon class="cls-1" points="12 124.73 17.93 132.03 25.46 127.15 22.93 121.41 14.14 121.41 12 124.73"/><polygon class="cls-1" points="48.14 131.76 45.72 140.18 56.57 141.72 61.8 139.06 63.1 133.32 57.64 129.61 48.14 131.76"/><path class="cls-1" d="M56,124c-.11-.93-2.59-22.69-2.59-26.22,0-1.61,1-4.64,2.15-8.48,1.72-5.49,3.86-12.32,3.74-16.95-.1-3.88-1.6-6.34-3.32-9.18-2.43-4-5.17-8.52-5.19-18.1a4.91,4.91,0,0,0-4.08,1.36A8.41,8.41,0,0,0,44.54,54a33.48,33.48,0,0,0,3.51,10.17l.38.79-.83.26c-3,.94-4.6-.07-6.19-1.06a9,9,0,0,0-3.75-1.54l-.69-.1.05-.7a14.2,14.2,0,0,0-1.29-7.54l-.43-.8.86-.27a20.63,20.63,0,0,0,6.47-3.79l-.08-3.27c-5.25-.26-11.45,2.16-12.42,4.9-.7,2-.81,6-.32,11a8.55,8.55,0,0,1-.09,2.1,13.27,13.27,0,0,0,.68,6.59c.1.28-.48-.13-1.33-1.31a6.62,6.62,0,0,1-.95-3A13.4,13.4,0,0,1,28.25,64a7.51,7.51,0,0,0,.09-1.76c-.31-3.06-.66-8.64.39-11.63,1.39-3.94,9-6.37,14.61-5.85l.66.06.07,2.67a7.82,7.82,0,0,1,1.59-2.09,6.4,6.4,0,0,1,6-1.61l.57.14v.6c-.1,9.58,2.59,14,5,17.92,1.76,2.91,3.43,5.65,3.54,9.92.13,4.89-2.05,11.86-3.81,17.46-1.12,3.57-2.08,6.64-2.08,8,0,3.45,2.56,25.82,2.58,26ZM38.54,61.25a11.18,11.18,0,0,1,3.64,1.64c1.34.82,2.35,1.45,4.13,1.12a33.07,33.07,0,0,1-3.24-9.76,12.32,12.32,0,0,1-.1-3.14,24.24,24.24,0,0,1-5.56,3.26A15.94,15.94,0,0,1,38.54,61.25Z"/><path class="cls-1" d="M30,122.5l-1.47-.21,3.11-22.22c.51-3.52-2.93-8.73-6.27-13.77C21.84,81,18.2,75.49,18.2,70.85a13.88,13.88,0,0,1,.25-2.48,6.41,6.41,0,0,0,.14-1.73c-.38-3.25,0-7.32.93-9.26a7.42,7.42,0,0,1,4.39-3.88L24.3,55A6,6,0,0,0,20.86,58a19,19,0,0,0-.8,8.44,7.5,7.5,0,0,1-.15,2.16,13.15,13.15,0,0,0-.22,2.23c0,4.18,3.51,9.48,6.9,14.61C30.25,91,33.7,96.19,33.1,100.29Z"/><path class="cls-1" d="M23.15,70.51a6,6,0,0,1-.94-2.71,11,11,0,0,1,.49-3.09,4.57,4.57,0,0,0,.17-.82c-.56-6.46.75-11.82,1.39-13,.36-.65,3.79-6.32,12.08-5.5l-.14,1.5c-7.48-.75-10.52,4.52-10.65,4.74-.41.74-1.76,5.64-1.21,12.09a3.89,3.89,0,0,1-.21,1.34A10.28,10.28,0,0,0,23.85,70C24,71,23.79,71.23,23.15,70.51Z"/><path class="cls-1" d="M39.48,63.07a.75.75,0,0,1-.55-1.27,18.36,18.36,0,0,0,4-13.14.75.75,0,0,1,.67-.82.79.79,0,0,1,.81.68A19.64,19.64,0,0,1,40,62.83.77.77,0,0,1,39.48,63.07Z"/><path class="cls-1" d="M21.68,105.08c-.38-.16-.62-.93-.74-1.22-4.3-10.62.88-19.66,2.51-21.5a.74.74,0,0,1,1.05-.06.76.76,0,0,1,.05,1.06c-1.49,1.7-6.25,10-2.23,19.93a1.8,1.8,0,0,1,0,1.31C22.2,104.82,21.88,105.16,21.68,105.08Z"/><path class="cls-1" d="M43.28,42.69h-.13a.77.77,0,0,1-.61-.87c1.27-7.77,6.36-13.68,13-15a11.25,11.25,0,0,1,12.25,5.16c.22.35-.44.17-.78.39s-.25.78-.47.42a9.85,9.85,0,0,0-10.7-4.5c-4.55.95-10.38,5.14-11.79,13.83A.75.75,0,0,1,43.28,42.69Z"/><path class="cls-1" d="M82.35,36.49c-2.19-11.69-13.86-17-18.49-8a8.34,8.34,0,0,0-1.41.48c2.47.79,3.81,3.39,4.14,4.12A4.53,4.53,0,0,0,69,28.69c0-1.07-.43-1.7-.25-1.78.77-.35,1.89,1.19,1.66,2.9-.42,3.17-2.62,5-6.1,5-1.69-.06-3.11-.93-2.76-1.63.21-.43,1.17.35,2.74.35a4,4,0,0,0,.62,0A5.47,5.47,0,0,0,61,29.89c-3.28,2.63-3.24,7.86-1.73,10.47,2.89,5,8.07,4.1,10.81,10.18,1.34,3,2,8.8,3.94,9.36C76.76,60.73,85.43,52.93,82.35,36.49ZM78.9,49.14c-.08.34-.85,3.1-1.34,2.91s-.13-2,.1-3.06c2-9.2-1.44-14.58-3.1-17l-.24-.35c-.23-.34-1.14-1.63-.75-1.75.82-.24,2.24,1.26,2.82,2.14C78.19,34.81,81,40.2,78.9,49.14Z"/><path class="cls-1" d="M31.71,16.63l-2.06-1.84c.48.25.46-.08.46-.66a7.2,7.2,0,0,0-3-6.27c-.28-.2-.08-.36.38-.21a3.38,3.38,0,0,1,1.5,1,8.9,8.9,0,0,1,1.87,5.89A3.26,3.26,0,0,0,31.71,16.63Z"/><path class="cls-1" d="M30.59,20.09a13.47,13.47,0,0,1-5-1,4.06,4.06,0,0,1-1.21-.85c-.22-.26-.34-.74-.07-.58a11.55,11.55,0,0,0,1.29.62,11.8,11.8,0,0,0,7.1.8l.2.72A8.69,8.69,0,0,1,30.59,20.09Z"/><path class="cls-1" d="M36.29,22.23l-.68-.31c1.75-3.83-1-8.39-1-8.44a2.7,2.7,0,0,1-.34-.89c0-.18.49.1.78.4a6.76,6.76,0,0,1,1.1,2A9.52,9.52,0,0,1,36.29,22.23Z"/><path class="cls-1" d="M33.66,26.43a13.17,13.17,0,0,1-3.76-.53A4.88,4.88,0,0,1,28.24,25c-.14-.14-.56-.57-.46-.69s.5.12.5.12c3.45,2,8.21,1.22,9.22.61l.39.64A9.53,9.53,0,0,1,33.66,26.43Z"/><path class="cls-1" d="M51.08,13.79a9.41,9.41,0,0,1,2-8.14c.27-.31,1.1-1,1.36-.74s-.65,1-1,1.5a8.73,8.73,0,0,0-1.67,7.22Z"/><path class="cls-1" d="M58.61,8.58l-.75,0a6.57,6.57,0,0,1,2.46-4.83,2.1,2.1,0,0,1,1.23-.41c.43,0,.25.32.14.39L61,4.15A5.85,5.85,0,0,0,58.61,8.58Z"/><path class="cls-1" d="M52.6,18a17.89,17.89,0,0,1-3.39-.31l.15-.74a16.45,16.45,0,0,0,10.39-1.33s.65-.34.57.1a1.9,1.9,0,0,1-1,1A16.75,16.75,0,0,1,52.6,18Z"/><path class="cls-1" d="M59.1,11.74A9.05,9.05,0,0,1,55.19,11l.34-.67s3.84,1.88,10-.84c0,0,.58-.26.38.24a1.76,1.76,0,0,1-.9.79A16.16,16.16,0,0,1,59.1,11.74Z"/><path class="cls-1" d="M29.06,82.56a18.06,18.06,0,0,1-4.6-8.3c-.1-.52.31-.87.59-.37a64.51,64.51,0,0,0,4.75,8.2c.17.25.76,1.07.6,1.22S29.52,83.05,29.06,82.56Z"/><path class="cls-1" d="M53.6,96c-.65,2.78-3.13,11.26-2.69,12.53.34,1,1.36-2,1.87-4.14a11.16,11.16,0,0,1,1.35-3.8"/></g></g></svg>