<svg xmlns="http://www.w3.org/2000/svg" viewBox="0 0 128.99 45"><defs><style>.cls-1{fill:#e35d45;}</style></defs><title>logo</title><g id="Layer_2" data-name="Layer 2"><g id="Art"><path class="cls-1" d="M10.57,23.3v.29c3.61.8,3.78,4.24,3.78,10.09v3.38c0,1.85.07,3.32.17,4.53l1,2.69h-6A9.65,9.65,0,0,1,9,41.36L8.91,32.7c-.12-6.59-.58-6.93-1.95-6.93H6.15V44.28H0l.65-2.69V3.41L0,.72H7.19c5,0,7.85,2.17,7.85,11.75C15,20.15,14.24,22.16,10.57,23.3ZM7,5.19H6.15v16H6.9c1.89,0,2.69-.86,2.69-8.2C9.59,6.1,8.85,5.19,7,5.19Z"/><path class="cls-1" d="M31,44.28H19.43l.66-2.69V3.41L19.43.72H30.9l.65,5.18-2.7-.65h-3.2V19.06h2l2.71-.65v5.83l-2.71-.65h-2V39.76h3.26l2.7-.66Z"/><path class="cls-1" d="M50.52,37.12c0,5.62-2.58,7.16-7.91,7.16h-7l.65-2.69v-38L35.66.72h7.13c5.38,0,7.73,1.72,7.73,7.28ZM45,7.54c0-1.78-.28-2.29-1.94-2.29H41.87V39.76H43c1.72,0,2-.41,2-2.3Z"/><path class="cls-1" d="M71.53,45c-4.76,0-6.94-2.75-6.94-8V8c0-5.39,2.24-8,6.88-8,4.19,0,6.6,2.12,6.6,9.23,0,1.21,0,2.17-.08,3L78.37,15l-4.89-.4a30.33,30.33,0,0,0,.29-4.47c0-4.82-.58-5.62-1.9-5.62-1.08,0-1.72.63-1.72,2.52v31.3c0,1.61.58,2.24,1.67,2.24,1.37,0,2-1.21,2-5.85a25.1,25.1,0,0,0-.35-4.24l4.9-.4L78,32.77c.06.76.1,1.66.1,2.71C78.12,43.05,75.66,45,71.53,45Z"/><path class="cls-1" d="M94,44.14H82.34L83,41.45V3.27L82.34.57h6.87l-.65,2.7V39.61h3L94.63,39Z"/><path class="cls-1" d="M113.57,44.14h-6.69l.46-2.69-.27-3.84h-3.84L103,41.45l.46,2.69H97.25l.89-2.69L101.5,3.27l-.41-2.7h8.64l-.41,2.7,3.36,38.18Zm-6.73-11.06L105.35,9h-.28l-1.55,24.08Z"/><path class="cls-1" d="M129,.57l-1.12,2.84-4,24V41.45l.65,2.69h-6.69l.65-2.69V27.34L114.33,3.41,113.19.57h6.74l-.36,2.7,1.72,16.33h.29l1.77-16.33L123,.57Z"/></g></g></svg>