<svg xmlns="http://www.w3.org/2000/svg" viewBox="0 0 150 150"><defs><style>.cls-1{fill:#3d3935;}</style></defs><title>pepper-icon</title><g id="Layer_2" data-name="Layer 2"><g id="Art"><path class="cls-1" d="M61.73,67.26a.7.7,0,0,1-.25-.05.67.67,0,0,1-.37-.86,7,7,0,0,0,0-3.83.64.64,0,0,1,.06-.52.65.65,0,0,1,.42-.3,5.08,5.08,0,0,0,2.79-1.79.65.65,0,0,1,.9-.23.65.65,0,0,1,.23.9,5.7,5.7,0,0,1-3,2.21,7.69,7.69,0,0,1-.23,4.05A.66.66,0,0,1,61.73,67.26Z"/><path class="cls-1" d="M52.57,70.25a3.41,3.41,0,0,1-.85-.11.67.67,0,0,1-.46-.82.66.66,0,0,1,.81-.46c1.36.38,3.49-.93,4.15-2.22a.66.66,0,0,1,.79-.33c1,.32,3.78.26,4.26-.2a.66.66,0,0,1,.94,0,.67.67,0,0,1,0,.94c-.94.89-3.7.83-5,.61A6.14,6.14,0,0,1,52.57,70.25Z"/><path class="cls-1" d="M52.38,64.53a.66.66,0,0,1-.65-.56,7.41,7.41,0,0,0-1.08-3.25C45.41,52.32,47.78,45.1,49,42.39a2.15,2.15,0,0,1,2.59-1.34c.71.28,1.35,1.18.83,2.78a12.78,12.78,0,0,0,.72,10.36,7.94,7.94,0,0,0,4.65,4,.66.66,0,0,1,.48.8.65.65,0,0,1-.8.48A9.27,9.27,0,0,1,52,54.83a14.2,14.2,0,0,1-.81-11.41c.21-.65.13-1.06-.06-1.14s-.65.11-.91.66c-1.45,3.13-3.19,9.51,1.53,17.08A8.71,8.71,0,0,1,53,63.78a.67.67,0,0,1-.56.75Z"/><path class="cls-1" d="M100.07,100.27h-.6C78,99.68,58.51,92.44,52,82.65a11.17,11.17,0,0,1-1.48-10.54.68.68,0,0,1,.86-.38.67.67,0,0,1,.38.86c-1.19,3.06-.74,6.2,1.34,9.33,6.29,9.45,25.38,16.45,46.42,17,3.43.1,5.63-.66,6.1-2.12.54-1.66-.25-3.1-2.42-4.39-14.36-8.57-18.11-16.06-21.73-23.3a56.69,56.69,0,0,0-4.57-8,8.61,8.61,0,0,0-10.66-3,.66.66,0,0,1-.88-.31.65.65,0,0,1,.31-.88A9.94,9.94,0,0,1,78,60.36a60,60,0,0,1,4.67,8.18c3.54,7.07,7.2,14.38,21.23,22.75,3.41,2,3.51,4.35,3,5.94C106.41,98.63,104.85,100.27,100.07,100.27Z"/><path class="cls-1" d="M91.43,95.7h-.06c-12-1.06-25.75-6.47-32.1-12.57a.66.66,0,0,1,.91-1c6.16,5.92,19.62,11.17,31.31,12.21a.67.67,0,0,1,.6.72A.65.65,0,0,1,91.43,95.7Z"/><path class="cls-1" d="M51.9,70.16a.7.7,0,0,1-.37-.11.67.67,0,0,1-.19-.92,2.88,2.88,0,0,0,.54-1.95v-.24a.66.66,0,0,1,.66-.66h0a.65.65,0,0,1,.66.65v.21a4.16,4.16,0,0,1-.75,2.72A.68.68,0,0,1,51.9,70.16Z"/><path class="cls-1" d="M60.79,59.52a.66.66,0,0,1,0-1.32,6.37,6.37,0,0,0,2.42-.43A.66.66,0,1,1,63.65,59,7.68,7.68,0,0,1,60.79,59.52Z"/><path class="cls-1" d="M88.09,86.16a.66.66,0,0,1-.4-.13,20.93,20.93,0,0,1-6.06-6.58.67.67,0,0,1,.3-.89.65.65,0,0,1,.88.29A19.92,19.92,0,0,0,88.48,85a.68.68,0,0,1,.14.93A.67.67,0,0,1,88.09,86.16Z"/><path class="cls-1" d="M75,150a75,75,0,1,1,75-75A75.09,75.09,0,0,1,75,150ZM75,1.38A73.62,73.62,0,1,0,148.62,75,73.7,73.7,0,0,0,75,1.38Z"/><path class="cls-1" d="M27.94,49.42l-.72,1.69-2,.08-1.79,4.2,1.34,1.53L24,58.61,17.6,51.3l.63-1.47Zm-4.61,1.85-3.41.16L22.17,54Z"/><path class="cls-1" d="M37.47,36.92l-4.95,5.7-6.63-5.75L27,35.61l5.37,4.66,3.86-4.44Z"/><path class="cls-1" d="M41.12,33.84l-1.27,1.07-5.67-6.67,1.27-1.08Z"/><path class="cls-1" d="M46.06,21.73l-2.49,1.56,3.82,6.09L46,30.27l-3.82-6.1-2.49,1.57-.84-1.34,6.39-4Z"/><path class="cls-1" d="M56.17,17.38l-2.73,1.08,2.65,6.68-1.55.61-2.65-6.68-2.73,1.09-.58-1.47,7-2.78Z"/><path class="cls-1" d="M69.05,21.86l-7.4,1.41L60,14.66l1.64-.31,1.32,7,5.77-1.09Z"/><path class="cls-1" d="M79.14,21.73l-7.08-.1.13-8.73,7,.1,0,1.66-5.33-.08,0,1.57L77,16.2l0,1.65-3.14,0,0,2.18,5.42.08Z"/><path class="cls-1" d="M96,18.85a4.76,4.76,0,0,0-2.31-1.52c-1.46-.47-2-.27-2.1.16-.43,1.34,5.6,2.1,4.51,5.5-.7,2.17-2.83,2-4.7,1.35a5.83,5.83,0,0,1-3.6-2.5l1.36-1a5,5,0,0,0,2.75,1.9c1,.32,2.39.68,2.68-.24.55-1.71-5.52-2.61-4.61-5.45.48-1.47,2-1.93,4.18-1.23a5.18,5.18,0,0,1,3.07,2Z"/><path class="cls-1" d="M108.25,27.67a4.59,4.59,0,1,1-1.67-6.18A4.54,4.54,0,0,1,108.25,27.67Zm-1.43-.86a2.93,2.93,0,1,0-3.94.91A2.87,2.87,0,0,0,106.82,26.81Z"/><path class="cls-1" d="M117.55,36.34a4.12,4.12,0,0,1-6-5.69l3.26-3.42,1.21,1.14L112.8,31.8a2.45,2.45,0,1,0,3.55,3.39l3.26-3.43,1.21,1.15Z"/><path class="cls-1" d="M126.89,43.64l-1.68-2.4-5.89,4.1L118.37,44l5.89-4.1-1.67-2.4,1.29-.9,4.3,6.17Z"/><path class="cls-1" d="M125.68,57.89,125,56.36l3.54-1.53-1.92-4.5-3.47,1.48-.74-1.5,8.07-3.44.73,1.49-3.06,1.31,1.93,4.52,3-1.28.66,1.54Z"/><path class="cls-1" d="M14.13,87.91l8.44-2.26,1.84,6.83-1.6.43L21.4,87.68l-1.52.41.86,3.21-1.6.43-.86-3.21-3.72,1Z"/><path class="cls-1" d="M25.67,105.44a4.59,4.59,0,1,1,1.88-6.11A4.52,4.52,0,0,1,25.67,105.44ZM24.92,104a2.93,2.93,0,1,0-3.82-1.32A2.88,2.88,0,0,0,24.92,104Z"/><path class="cls-1" d="M30.07,118.08l-1.23-1.46L30.15,113l-1.75-2.09-2.55,2.14-1.07-1.28,6.72-5.62,3.56,4.25a2.68,2.68,0,0,1-.33,3.79,2.74,2.74,0,0,1-3.32.17Zm3.63-6.72-2.41-2.87-1.61,1.35,2.41,2.89a1.17,1.17,0,0,0,1.57.18A1.14,1.14,0,0,0,33.7,111.36Z"/><path class="cls-1" d="M50.9,122.86,44.63,125l-1.92,3.07-1.41-.89,1.92-3.06-.79-6.59,1.81,1.13.51,4.58,4.36-1.52Z"/><path class="cls-1" d="M60.28,131.06a4.6,4.6,0,1,1-2.85-5.75A4.53,4.53,0,0,1,60.28,131.06Zm-1.57-.56a2.94,2.94,0,1,0-3.7,1.67A2.89,2.89,0,0,0,58.71,130.5Z"/><path class="cls-1" d="M72.59,133.19a4.11,4.11,0,1,1-8.17-.91l.52-4.69,1.65.18-.52,4.69a2.45,2.45,0,0,0,4.87.55l.52-4.7,1.65.19Z"/><path class="cls-1" d="M85.79,136.32l-1.9.2-2.26-3.1-2.7.29.35,3.3-1.65.18-.93-8.69,5.5-.59a2.67,2.67,0,0,1,3,2.38,2.75,2.75,0,0,1-1.7,2.85Zm-3.55-6.74-3.71.39.22,2.09,3.73-.4a1.15,1.15,0,0,0,1-1.19A1.12,1.12,0,0,0,82.24,129.58Z"/><path class="cls-1" d="M100.15,122.21l1.46-.68,3.66,7.94-1.51.7-2.22-4.84-.56,6.12-5-3.56,2.23,4.83-1.51.7L93,125.48l1.46-.67,5.09,3.61Z"/><path class="cls-1" d="M114.35,117.54a4.6,4.6,0,1,1-6.38-.68A4.53,4.53,0,0,1,114.35,117.54Zm-1.32,1a2.94,2.94,0,1,0-.58,4A2.87,2.87,0,0,0,113,118.57Z"/><path class="cls-1" d="M122.74,108.35a4.11,4.11,0,0,1-5.17,6.39l-3.68-3,1-1.29,3.67,3a2.45,2.45,0,1,0,3.08-3.81l-3.67-3,1-1.29Z"/><path class="cls-1" d="M125.46,97.05l-1.35,2.6,6.37,3.31-.77,1.47-6.37-3.3-1.35,2.6-1.4-.73,3.47-6.68Z"/><path class="cls-1" d="M135.86,88.26l-.46,1.59-3.7-1.06-1.36,4.69,3.61,1-.38,1.62-8.4-2.43.38-1.63,3.19.93,1.37-4.7L127,87.41l.46-1.59Z"/></g></g></svg>